<svg version="1.1" viewBox="0.0 0.0 600.0 600.0" fill="none" stroke="none" stroke-linecap="square" stroke-miterlimit="10" xmlns:xlink="http://www.w3.org/1999/xlink" xmlns="http://www.w3.org/2000/svg"><clipPath id="p.0"><path d="m0 0l600.0 0l0 600.0l-600.0 0l0 -600.0z" clip-rule="nonzero"/></clipPath><g clip-path="url(#p.0)"><path fill="#000000" fill-opacity="0.0" d="m0 0l600.0 0l0 600.0l-600.0 0z" fill-rule="evenodd"/><path fill="#f4e3d1" d="m0 60.84c0 -33.601006 27.238997 -60.84 60.84 -60.84l478.31998 0c16.135803 0 31.610718 6.40991 43.020386 17.819624c11.409729 11.409712 17.819641 26.884604 17.819641 43.02038l0 478.31998c0 33.601013 -27.239014 60.840027 -60.840027 60.840027l-478.31998 0c-33.601006 0 -60.84 -27.239014 -60.84 -60.840027z" fill-rule="evenodd"/><path fill="#000000" fill-opacity="0.0" d="m16.902895 47.464565l280.50394 0l0 505.0709l-280.50394 0z" fill-rule="evenodd"/><path fill="#383846" d="m190.9654 155.9177q43.75 0 66.40625 17.28125q22.65625 17.28125 22.65625 53.21875q0 22.078125 -10.15625 36.53125q-10.15625 14.453125 -28.515625 23.234375q25.984375 7.8125 39.15625 26.375q13.1875 18.546875 13.1875 46.09375q0 39.453125 -28.515625 61.140625q-28.515625 21.671875 -70.5 21.671875l-140.23438 0l0 -285.54688l136.51562 0zm-8.984375 115.625q16.796875 0 27.046875 -8.59375q10.265625 -8.59375 10.265625 -25.390625q0 -16.796875 -10.546875 -24.796875q-10.546875 -8.015625 -31.0625 -8.015625l-60.34375 0l0 66.796875l64.640625 0zm4.109375 121.09375q20.890625 0 32.796875 -9.171875q11.921875 -9.1875 11.921875 -28.328125q0 -20.125 -11.234375 -30.46875q-11.21875 -10.359375 -32.515625 -10.359375l-69.71875 0l0 78.328125l68.75 0z" fill-rule="nonzero"/><path fill="#000000" fill-opacity="0.0" d="m283.38583 72.14173l280.50394 0l0 455.71655l-280.50394 0z" fill-rule="evenodd"/><path fill="#73737f" d="m375.03818 169.74174l0 106.531235l100.375 -106.531235l70.65622 0l-100.546844 101.437485l110.21872 155.5625l-71.015594 0l-77.34375 -115.484375l-32.34375 32.6875l0 82.796875l-56.609375 0l0 -257.0l56.609375 0z" fill-rule="nonzero"/></g></svg>